# xmcd CD database file
#
# Track frame offsets:
#	150
#	24457
#	51687
#	85419
#	97788
#	111039
#	121212
#	139669
#	159994
#
# Disc length: 2373 seconds
#
# Revision: 3
# Processed by: cddbd v1.5.2PL0 Copyright (c) Steve Scherf et al.
# Submitted via: CDex 1.51
#
DISCID=6d094309
DTITLE=Domenico Scarlatti - Messe 'De Madrid' - Concerto grosso N°12
DYEAR=1900
DGENRE=Classique
TTITLE0=Messe en sol mineur ''De Madrid'' - I. Kyrie  (Eva Kollàr, Monteverdi Chamber Choir)
TTITLE1=Messe en sol mineur ''De Madrid'' - II. Gloria
TTITLE2=Messe en sol mineur ''De Madrid'' - III. Credo
TTITLE3=Messe en sol mineur ''De Madrid'' - IV. Sanctus - Benedictus
TTITLE4=Messe en sol mineur ''De Madrid'' - V. Agnus Dei
TTITLE5=Concerto grosso N°12 en ré majeur - I. Grave temporeggiato [Avison, Tafelmusic Baroque Orch]
TTITLE6=Concerto grosso N°12 en ré majeur - II. Allegro spiritoso
TTITLE7=Concerto grosso N°12 en ré majeur - III. Lentemente
TTITLE8=Concerto grosso N°12 en ré majeur - IV. Temporeggiato, Allegro
EXTD=
EXTT0=
EXTT1=
EXTT2=
EXTT3=
EXTT4=
EXTT5=
EXTT6=
EXTT7=
EXTT8=
PLAYORDER=
